<svg aria-hidden="true" style="position:absolute;width:0;height:0;overflow:hidden" xmlns="http://www.w3.org/2000/svg"><defs><symbol id="icon-bg"><path fill="#fef3e4" style="fill:var(--color1, #fef3e4)" d="M.355 2.516c.082.51-.227.469-.392.384v6.26c0 1.223-.078 22.468 0 22.813.048.209.461-.868.392-1.102S.15 29.78.449 29.687c.299-.094.341-.309.495-.581s.546-.806 1.501-.393c.955.412 1.587.037 2.039-.337.896-.743 2.415.004 2.837.64.222.334-.383 1.984 0 2.143.191.079.362 1.541.362-.079V2.415c-.006.069-.048.186-.171.103-.362-.202-.213-.822-.094-1.106.065-.272.087-.909-.35-1.284C6.554-.313 5.043.54 4.166.54 3.208.54 2.743.296 2.172.071S1.148.23.969.54C.79.849.781.971.508 1.112c-.537.216-.256.768-.154 1.406z"/></symbol><symbol id="icon-bg-1" viewBox="0 0 22 32"><path fill="#fef3e4" style="fill:var(--color1, #fef3e4)" d="M.894 31.089c0 .399-.55.893-.894.877V.001h22.209v5.86c.009 3.498 0 24.231 0 24.864 0 .397-.606.23-1.097-.409s.418-2.679.491-3.269c.074-.59-.147-1.819-2.433-3.319s-5.627-.172-7.396.713c-1.769.885-3.273-.344-5.681-1.082s-3.293.443-3.612 1.082c-.319.639-.315 2.36-1.002 2.606s-.958.91-.786 1.868.201 1.659.201 2.175z"/></symbol></defs></svg>